<svg height="512pt" viewBox="-72 0 512 512" width="512pt" xmlns="http://www.w3.org/2000/svg"><path d="m344.601562 512h-322.050781c-12.453125 0-22.550781-10.097656-22.550781-22.550781v-447.007813c0-12.453125 10.097656-22.550781 22.550781-22.550781h322.050781c12.453126 0 22.546876 10.097656 22.546876 22.550781v447.007813c0 12.453125-10.09375 22.550781-22.546876 22.550781zm0 0" fill="#38aaff"/><path d="m367.152344 42.441406v447.007813c0 12.453125-10.097656 22.550781-22.550782 22.550781h-65.386718c12.457031 0 22.550781-10.097656 22.550781-22.550781v-447.007813c0-12.453125-10.09375-22.550781-22.550781-22.550781h65.386718c12.457032.003906 22.550782 10.097656 22.550782 22.550781zm0 0" fill="#2081f6"/><path d="m331.128906 63.859375v404.617187c0 5.757813-4.667968 10.421876-10.425781 10.421876h-274.257813c-5.757812 0-10.421874-4.664063-10.421874-10.421876v-404.617187c0-5.757813 4.664062-10.421875 10.421874-10.421875h274.257813c5.757813-.003906 10.425781 4.664062 10.425781 10.421875zm0 0" fill="#d9efec"/><path d="m331.128906 63.859375v404.617187c0 5.757813-4.667968 10.421876-10.425781 10.421876h-18.9375v-425.464844h18.9375c5.757813 0 10.425781 4.667968 10.425781 10.425781zm0 0" fill="#c1dbd6"/><path d="m277.855469 68.773438h-188.5625c-12.066407 0-21.847657-9.78125-21.847657-21.847657v-25.078125c0-12.066406 9.78125-21.847656 21.847657-21.847656h188.5625c12.066406 0 21.847656 9.78125 21.847656 21.847656v25.082032c0 12.0625-9.78125 21.84375-21.847656 21.84375zm0 0" fill="#95c6df"/><path d="m299.707031 21.851562v25.074219c0 12.074219-9.789062 21.847657-21.851562 21.847657h-188.5625c-12.0625 0-21.851563-9.773438-21.851563-21.847657v-25.074219c0-.546874.023438-1.09375.074219-1.628906.824219 11.308594 10.257813 20.222656 21.777344 20.222656h188.5625c11.515625 0 20.953125-8.914062 21.777343-20.222656.054688.535156.074219 1.082032.074219 1.628906zm0 0" fill="#75a4c8"/><path d="m135.125 407.34375h25.480469v25.480469c0 5.6875 4.609375 10.300781 10.300781 10.300781h25.335938c5.691406 0 10.304687-4.613281 10.304687-10.300781v-25.480469h25.476563c5.691406 0 10.300781-4.613281 10.300781-10.300781v-25.339844c0-5.6875-4.609375-10.300781-10.300781-10.300781h-25.476563v-25.480469c0-5.6875-4.613281-10.300781-10.304687-10.300781h-25.335938c-5.691406 0-10.300781 4.613281-10.300781 10.300781v25.480469h-25.480469c-5.691406 0-10.304688 4.613281-10.304688 10.300781v25.339844c.003907 5.6875 4.613282 10.300781 10.304688 10.300781zm0 0" fill="#f55"/><g fill="#75a4c8"><path d="m150.253906 137.015625h-70.71875c-4.265625 0-7.722656-3.460937-7.722656-7.726563 0-4.269531 3.457031-7.726562 7.722656-7.726562h70.71875c4.265625 0 7.726563 3.457031 7.726563 7.726562 0 4.265626-3.460938 7.726563-7.726563 7.726563zm0 0"/><path d="m104.988281 173.070312h-25.453125c-4.265625 0-7.722656-3.460937-7.722656-7.726562s3.457031-7.726562 7.722656-7.726562h25.453125c4.269531 0 7.726563 3.460937 7.726563 7.726562s-3.457032 7.726562-7.726563 7.726562zm0 0"/><path d="m104.988281 195.390625h-25.453125c-4.265625 0-7.722656-3.457031-7.722656-7.726563 0-4.265624 3.457031-7.726562 7.722656-7.726562h25.453125c4.269531 0 7.726563 3.460938 7.726563 7.726562 0 4.269532-3.457032 7.726563-7.726563 7.726563zm0 0"/><path d="m104.988281 217.710938h-25.453125c-4.265625 0-7.722656-3.457032-7.722656-7.726563 0-4.265625 3.457031-7.722656 7.722656-7.722656h25.453125c4.269531 0 7.726563 3.457031 7.726563 7.722656 0 4.269531-3.457032 7.726563-7.726563 7.726563zm0 0"/><path d="m150.253906 240.03125h-70.71875c-4.265625 0-7.722656-3.457031-7.722656-7.726562 0-4.265626 3.457031-7.726563 7.722656-7.726563h70.71875c4.265625 0 7.726563 3.460937 7.726563 7.726563 0 4.269531-3.460938 7.726562-7.726563 7.726562zm0 0"/><path d="m124.53125 291.539062h-44.996094c-4.265625 0-7.722656-3.457031-7.722656-7.722656 0-4.269531 3.457031-7.726562 7.722656-7.726562h44.996094c4.269531 0 7.726562 3.457031 7.726562 7.726562 0 4.265625-3.457031 7.722656-7.726562 7.722656zm0 0"/></g><path d="m287.609375 137.015625h-70.714844c-4.265625 0-7.726562-3.460937-7.726562-7.726563 0-4.269531 3.460937-7.726562 7.726562-7.726562h70.714844c4.269531 0 7.726563 3.457031 7.726563 7.726562.003906 4.265626-3.457032 7.726563-7.726563 7.726563zm0 0" fill="#f55"/><path d="m287.609375 173.070312h-25.453125c-4.265625 0-7.722656-3.460937-7.722656-7.726562s3.457031-7.726562 7.722656-7.726562h25.453125c4.269531 0 7.726563 3.460937 7.726563 7.726562.003906 4.265625-3.457032 7.726562-7.726563 7.726562zm0 0" fill="#f55"/><path d="m287.609375 195.390625h-25.453125c-4.265625 0-7.722656-3.457031-7.722656-7.726563 0-4.265624 3.457031-7.726562 7.722656-7.726562h25.453125c4.269531 0 7.726563 3.460938 7.726563 7.726562 0 4.269532-3.457032 7.726563-7.726563 7.726563zm0 0" fill="#f55"/><path d="m287.609375 217.710938h-25.453125c-4.265625 0-7.722656-3.457032-7.722656-7.726563 0-4.265625 3.457031-7.722656 7.722656-7.722656h25.453125c4.269531 0 7.726563 3.457031 7.726563 7.722656 0 4.269531-3.457032 7.726563-7.726563 7.726563zm0 0" fill="#f55"/><path d="m287.609375 240.03125h-70.714844c-4.265625 0-7.726562-3.457031-7.726562-7.726562 0-4.265626 3.460937-7.726563 7.726562-7.726563h70.714844c4.269531 0 7.726563 3.460937 7.726563 7.726563 0 4.269531-3.457032 7.726562-7.726563 7.726562zm0 0" fill="#f55"/><path d="m287.609375 291.539062h-44.992187c-4.269532 0-7.726563-3.457031-7.726563-7.722656 0-4.269531 3.457031-7.726562 7.726563-7.726562h44.992187c4.269531 0 7.726563 3.457031 7.726563 7.726562.003906 4.265625-3.457032 7.722656-7.726563 7.722656zm0 0" fill="#f55"/><path d="m177.007812 199.375c-1.976562 0-3.957031-.753906-5.464843-2.261719-3.015625-3.019531-3.015625-7.910156 0-10.929687l7.671875-7.671875-7.671875-7.671875c-3.015625-3.015625-3.015625-7.90625 0-10.925782 3.019531-3.015624 7.910156-3.015624 10.929687 0l13.132813 13.136719c3.019531 3.015625 3.019531 7.90625 0 10.925781l-13.132813 13.132813c-1.511718 1.511719-3.488281 2.265625-5.464844 2.265625zm0 0" fill="#38aaff"/></svg>