<svg height="512pt" viewBox="-97 0 512 512.00039" width="512pt" xmlns="http://www.w3.org/2000/svg"><path d="m15.824219 337.058594c14.714843 26.226562 5.460937 58.664062 1.910156 86.648437-3.421875 26.960938 6.476563 54.175781 27.558594 71.328125 14.234375 11.582032 30.554687 17.304688 49.027343 16.949219 26.777344-.515625 51.609376-14.128906 67.183594-35.914063l28.453125-39.785156h-.769531l20.902344-28.15625 36.726562-51.359375c73.027344-112.867187 88.199219-206.566406 52.828125-283.523437-24.691406-53.71875-83.472656-83.710938-140.957031-69.894532-15.542969 3.734376-31.359375 10.335938-47.460938 19.890626-11.371093 6.746093-21.253906 15.664062-29.777343 25.773437-13.703125 16.246094-31 26.53125-51.039063 30.359375-7.964844 1.523438-14.699218 6.804688-17.921875 14.246094-7.421875 17.152344-16.203125 48.070312 3.335938 70.707031 28.457031 32.964844-46.996094 88.953125 0 172.730469zm0 0" fill="#efb490"/><path d="m300.117188 74.285156c-8.910157-19.683594-22.367188-36.246094-38.65625-48.703125 5.832031 7.621094 10.875 15.984375 14.960937 25.007813 34.761719 76.761718 19.398437 170.125-53.300781 282.484375l-36.726563 51.359375-20.902343 28.15625h.769531l-28.273438 39.539062c-15.945312 22.296875-41.507812 36.15625-68.917969 36.175782-14.65625.011718-27.929687-3.855469-39.875-11.476563 4.285157 6.808594 9.667969 12.976563 16.09375 18.207031 13.835938 11.253906 29.636719 16.976563 47.472657 16.964844 27.410156-.023438 52.976562-13.882812 68.917969-36.179688l28.273437-39.535156h-.769531l20.90625-28.160156 36.726562-51.359375c72.699219-112.355469 88.0625-205.71875 53.300782-282.480469zm0 0" fill="#d9a383"/><path d="m155.535156 69.476562c20.636719-2.230468 40.457032.652344 59.414063 8.914063 21.570312 9.402344 37.867187 27.640625 45.472656 49.90625 17.292969 50.625 5.851563 104.140625-28.351563 159.9375-3.476562 5.671875-12.089843 1.238281-9.511718-4.894531 23.878906-56.757813 19.121094-105.832032-6.921875-159.003906-.621094-.617188-1.304688-1.183594-2.046875-1.652344-5.652344-3.550782-10.648438-4.097656-15.003906-1.664063-5.078126 2.839844-7.285157 9.027344-5.679688 14.625 27.984375 97.621094 10.535156 168.59375-84.050781 194.320313l-12.082031 18.121094c-4.277344 6.414062-14.082032 11.660156-21.792969 11.660156-10.003907 0-16.648438-10.355469-12.480469-19.449219l10.878906-23.734375c9.644532-23.210938 11.921875-50.242188 7.875-80.546875-.714844-5.359375 5.277344-9 9.675782-5.859375l43.347656 30.429688c6.917968 4.941406 16.671875 4.007812 22.042968-2.582032 3.214844-3.945312 4.199219-9.03125 2.945313-15.253906-.808594-4.007812-3.175781-7.53125-6.492187-9.921875l-16.28125-11.308594c-25.40625-18.320312-40.582032-47.867187-39.933594-79.179687.152344-7.4375.933594-14.804688 2.398437-22.097656 3.761719-18.746094 15.738281-34.273438 31.855469-43.117188 0-.003906 6.609375-7.027344 24.722656-7.648438zm0 0" fill="#b5886d"/></svg>