<svg height="511pt" viewBox="-16 1 511 511.99958" width="511pt" xmlns="http://www.w3.org/2000/svg"><path d="m299.808594 355.269531c0 82.652344-67.003906 149.652344-149.65625 149.652344-82.648438 0-149.652344-67-149.652344-149.652344 0-82.652343 67.003906-149.65625 149.652344-149.65625 82.652344 0 149.65625 67.003907 149.65625 149.65625zm0 0" fill="#60daff"/><path d="m23.75 275.101562c5.714844-8.984374 12.480469-17.503906 20.304688-25.371093 58.285156-58.597657 153.039062-58.851563 211.636718-.566407 58.597656 58.285157 58.855469 153.046876.570313 211.644532-7.824219 7.867187-16.308594 14.675781-25.265625 20.4375 36.871094-58.003906 29.871094-135.808594-20.867188-186.273438-50.738281-50.46875-128.570312-57.050781-186.378906-19.871094zm0 0" fill="#38aaff"/><path d="m8.726562 474.003906 50.496094-50.769531c8.679688-8.722656 22.785156-8.761719 31.511719-.082031 8.722656 8.679687 8.761719 22.785156.082031 31.511718l-50.496094 50.765626c-8.679687 8.726562-22.785156 8.765624-31.511718.085937-8.7265628-8.679687-8.761719-22.789063-.082032-31.511719zm0 0" fill="#1e6be7"/><path d="m270.605469 388.144531 71.601562-.191406c12.308594-.035156 22.3125 9.914063 22.34375 22.222656.03125 12.304688-9.917969 22.308594-22.222656 22.339844l-71.605469.191406c-12.304687.035157-22.308594-9.917969-22.339844-22.222656-.035156-12.304687 9.914063-22.308594 22.222657-22.339844zm0 0" fill="#1e6be7"/><path d="m99.613281 338.664062c0 13.195313-10.695312 23.890626-23.890625 23.890626-13.195312 0-23.890625-10.695313-23.890625-23.890626 0-13.195312 10.695313-23.890624 23.890625-23.890624 13.195313 0 23.890625 10.695312 23.890625 23.890624zm0 0" fill="#1e6be7"/><path d="m214.761719 419.507812c0 13.195313-10.695313 23.890626-23.890625 23.890626-13.191406 0-23.886719-10.695313-23.886719-23.890626 0-13.191406 10.695313-23.890624 23.886719-23.890624 13.195312 0 23.890625 10.699218 23.890625 23.890624zm0 0" fill="#1e6be7"/><path d="m454.09375 149.652344c0 82.652344-67.003906 149.65625-149.652344 149.65625-82.652344 0-149.65625-67.003906-149.65625-149.65625 0-82.648438 67.003906-149.652344 149.65625-149.652344 82.648438 0 149.652344 67.003906 149.652344 149.652344zm0 0" fill="#60daff"/><path d="m158.285156 181.960938c-2.285156-10.402344-3.5-21.214844-3.5-32.3125.003906-82.648438 67.003906-149.648438 149.652344-149.648438s149.660156 67 149.660156 149.648438c0 11.097656-1.210937 21.910156-3.5 32.3125-14.765625-67.128907-74.597656-117.351563-146.160156-117.351563s-131.386719 50.222656-146.152344 117.351563zm0 0" fill="#38aaff"/><g fill="#1e6be7"><path d="m222.777344 309.132812 50.628906-50.632812c8.703125-8.699219 22.8125-8.699219 31.511719 0 8.703125 8.703125 8.703125 22.8125 0 31.511719l-50.628907 50.632812c-8.703124 8.703125-22.8125 8.703125-31.511718 0-8.703125-8.703125-8.703125-22.808593 0-31.511719zm0 0"/><path d="m441.046875 293.007812-50.632813-50.632812c-8.703124-8.699219-8.703124-22.808594 0-31.511719 8.703126-8.703125 22.8125-8.703125 31.511719 0l50.632813 50.632813c8.703125 8.703125 8.703125 22.808594 0 31.511718-8.703125 8.703126-22.808594 8.703126-31.511719 0zm0 0"/><path d="m189.148438 103.335938-50.632813-50.632813c-8.703125-8.703125-8.703125-22.8125 0-31.511719 8.703125-8.703125 22.808594-8.703125 31.511719 0l50.632812 50.628906c8.703125 8.703126 8.703125 22.8125 0 31.515626-8.703125 8.699218-22.8125 8.699218-31.511718 0zm0 0"/><path d="m390.414062 65.410156 50.632813-50.632812c8.703125-8.703125 22.808594-8.703125 31.511719 0s8.703125 22.8125 0 31.511718l-50.632813 50.632813c-8.699219 8.703125-22.808593 8.703125-31.511719 0-8.703124-8.703125-8.703124-22.808594 0-31.511719zm0 0"/><path d="m341.222656 149.652344c0 13.195312-10.695312 23.890625-23.886718 23.890625-13.195313 0-23.890626-10.695313-23.890626-23.890625 0-13.191406 10.695313-23.886719 23.890626-23.886719 13.191406 0 23.886718 10.695313 23.886718 23.886719zm0 0"/><path d="m251.253906 181.960938c0 13.191406-10.695312 23.886718-23.886718 23.886718-13.195313 0-23.890626-10.695312-23.890626-23.886718 0-13.195313 10.695313-23.890626 23.890626-23.890626 13.191406 0 23.886718 10.695313 23.886718 23.890626zm0 0"/><path d="m132.925781 252.117188-.191406-71.601563c-.035156-12.308594 9.917969-22.3125 22.222656-22.34375 12.304688-.03125 22.308594 9.917969 22.339844 22.222656l.191406 71.605469c.035157 12.304688-9.914062 22.308594-22.222656 22.339844-12.304687.035156-22.308594-9.914063-22.339844-22.222656zm0 0"/></g><path d="m150.15625 380.082031c-.011719 0-.027344 0-.035156 0-4.269532-.019531-7.710938-3.492187-7.691406-7.761719v-.113281c.019531-4.265625 3.484374-7.675781 7.761718-7.691406 4.265625.019531 7.710938 3.492187 7.691406 7.761719l-.003906.113281c-.019531 4.253906-3.472656 7.691406-7.722656 7.691406zm0 0" fill="#38aaff"/><path d="m130.441406 388.941406c-.023437 0-.046875 0-.070312 0-4.265625-.035156-7.691406-3.527344-7.65625-7.792968l.003906-.113282c.035156-4.265625 3.527344-7.738281 7.792969-7.65625 4.265625.035156 7.695312 3.527344 7.65625 7.792969v.113281c-.039063 4.242188-3.488281 7.65625-7.726563 7.65625zm0 0" fill="#1e6be7"/><path d="m159.847656 472.886719c-.011718 0-.023437 0-.035156 0-4.269531-.019531-7.710938-3.492188-7.691406-7.757813v-.113281c.019531-4.257813 3.476562-7.695313 7.726562-7.695313h.035156c4.265626.019532 7.710938 3.496094 7.691407 7.761719v.113281c-.019531 4.257813-3.476563 7.691407-7.726563 7.691407zm0 0" fill="#38aaff"/><path d="m257.4375 102.839844c-.023438 0-.046875 0-.070312 0-4.265626-.039063-7.695313-3.527344-7.65625-7.796875v-.113281c.039062-4.265626 3.554687-7.738282 7.792968-7.65625 4.269532.039062 7.695313 3.527343 7.660156 7.796874l-.003906.113282c-.039062 4.242187-3.488281 7.65625-7.722656 7.65625zm0 0" fill="#1e6be7"/><path d="m395.746094 184.296875c-.023438 0-.046875 0-.070313 0-4.265625-.039063-7.695312-3.53125-7.65625-7.796875v-.113281c.039063-4.242188 3.492188-7.65625 7.722657-7.65625h.070312c4.269531.039062 7.695312 3.527343 7.660156 7.796875l-.003906.113281c-.035156 4.242187-3.488281 7.65625-7.722656 7.65625zm0 0" fill="#38aaff"/><path d="m282.664062 54.675781c-.023437 0-.046874 0-.070312 0-4.265625-.039062-7.695312-3.527343-7.65625-7.792969v-.113281c.039062-4.246093 3.492188-7.660156 7.726562-7.660156h.070313c4.265625.039063 7.695313 3.53125 7.65625 7.796875v.113281c-.039063 4.242188-3.492187 7.65625-7.726563 7.65625zm0 0" fill="#60daff"/></svg>